<svg width="1003" height="1003" viewBox="0 0 1003 1003" fill="none" xmlns="http://www.w3.org/2000/svg">
<path d="M501.333 208.9H503.086C620.861 209.795 715.388 300.703 715.404 411.886C715.337 420.202 714.75 428.503 713.642 436.742L713.632 436.823L713.622 436.904C704.601 517.216 655.035 604.412 606.932 672.161C582.982 705.893 559.595 734.529 542.197 754.73C533.501 764.827 526.308 772.809 521.298 778.257C518.793 780.981 516.834 783.07 515.507 784.474C514.843 785.176 514.337 785.706 514 786.058C513.832 786.234 513.705 786.366 513.622 786.452L513.53 786.547L513.509 786.569L513.505 786.573C513.505 786.573 513.505 786.573 513.516 786.585L513.505 786.573L513.481 786.598L513.458 786.622C511.373 788.811 508.964 790.67 506.316 792.139L502.847 793.146L499.373 792.137C496.787 790.716 494.45 788.886 492.456 786.718L492.371 786.625L492.282 786.535L492.269 786.548C492.282 786.535 492.282 786.535 492.282 786.535L492.278 786.531L492.256 786.509L492.163 786.413L492.042 786.29C491.97 786.216 491.883 786.126 491.779 786.02C491.437 785.667 490.924 785.137 490.251 784.435C488.904 783.031 486.917 780.942 484.376 778.218C479.293 772.77 471.995 764.79 463.171 754.695C445.519 734.498 421.789 705.873 397.482 672.165C348.658 604.456 298.344 517.365 289.106 437.269L289.096 437.182L289.084 437.095C287.923 428.745 287.316 420.331 287.26 411.896C287.274 300.161 382.744 208.9 501.333 208.9ZM407.01 410.024C407.01 460.057 449.633 499.993 501.333 499.993C553.033 499.993 595.656 460.058 595.656 410.029C595.656 359.996 553.033 320.06 501.333 320.06C449.633 320.06 407.01 359.996 407.01 410.024Z" fill="#ED981C" stroke="black" stroke-width="15"/>
</svg>
