<svg width="744" height="802" viewBox="0 0 744 802" fill="none" xmlns="http://www.w3.org/2000/svg">
<path opacity="0.2" d="M372.021 422.119C415.94 422.119 458.07 406.452 489.133 378.565C520.189 350.669 537.635 312.837 537.635 273.397C537.635 233.95 520.189 196.118 489.125 168.23C458.07 140.335 415.94 124.668 372.012 124.668C328.094 124.676 285.964 140.342 254.909 168.238C223.845 196.133 206.399 233.958 206.408 273.405C206.45 312.837 223.922 350.64 254.968 378.519C286.014 406.399 328.109 422.081 372.021 422.121V422.119ZM372.021 139.246C411.64 139.246 449.641 153.382 477.658 178.539C505.672 203.696 521.414 237.821 521.414 273.401C521.414 308.981 505.673 343.105 477.658 368.263C449.644 393.42 411.643 407.557 372.021 407.557C332.402 407.557 294.401 393.421 266.384 368.263C238.37 343.107 222.628 308.981 222.628 273.401C222.671 237.831 238.421 203.735 266.428 178.587C294.436 153.438 332.411 139.285 372.021 139.248V139.246ZM372.021 87.0698C374.171 87.0698 376.235 86.3084 377.759 84.9394C379.275 83.5704 380.132 81.7169 380.132 79.7864V7.28336C380.132 3.26088 376.5 0 372.021 0C367.542 0 363.91 3.26088 363.91 7.28336V79.7785C363.91 81.7167 364.758 83.5703 366.283 84.9316C367.807 86.3006 369.871 87.0698 372.021 87.0698ZM213.825 141.646V141.654C217.011 144.415 222.073 144.376 225.199 141.561C228.325 138.754 228.368 134.209 225.293 131.348L168.201 80.0635C166.685 78.6945 164.621 77.9178 162.463 77.9099C160.305 77.9099 158.232 78.6713 156.708 80.0403C155.183 81.417 154.327 83.2705 154.335 85.2087C154.335 87.1468 155.2 89.008 156.733 90.3694L213.825 141.646ZM75.6684 280.692H156.415C160.895 280.692 164.526 277.431 164.526 273.409C164.526 269.386 160.895 266.125 156.415 266.125H75.6684C71.189 266.125 67.5577 269.386 67.5577 273.409C67.5577 277.431 71.189 280.692 75.6684 280.692ZM213.825 405.157L156.733 456.441C155.183 457.802 154.301 459.663 154.284 461.609C154.267 463.563 155.123 465.432 156.656 466.808C158.198 468.185 160.279 468.954 162.446 468.946C164.613 468.931 166.694 468.139 168.201 466.747L225.293 415.462C226.852 414.101 227.734 412.24 227.742 410.286C227.759 408.341 226.903 406.472 225.37 405.095C223.837 403.711 221.756 402.949 219.58 402.957C217.413 402.972 215.341 403.765 213.825 405.157ZM372.021 459.733V459.74C367.542 459.74 363.91 463.001 363.91 467.024V539.527C363.91 543.549 367.542 546.81 372.021 546.81C376.5 546.81 380.132 543.549 380.132 539.527V467.016C380.132 462.993 376.5 459.733 372.021 459.733ZM530.209 405.157H530.2C528.684 403.78 526.62 403.003 524.462 403.003C522.303 402.995 520.231 403.764 518.706 405.133C517.182 406.502 516.325 408.364 516.334 410.302C516.334 412.24 517.199 414.093 518.732 415.462L575.824 466.747C577.34 468.146 579.412 468.954 581.588 468.969C583.763 468.985 585.861 468.216 587.394 466.831C588.936 465.455 589.793 463.578 589.775 461.617C589.75 459.663 588.859 457.802 587.3 456.441L530.209 405.157ZM579.506 273.409C579.506 275.34 580.362 277.193 581.887 278.562C583.403 279.923 585.467 280.693 587.617 280.693H668.364C672.843 280.693 676.474 277.432 676.474 273.409C676.474 269.387 672.843 266.126 668.364 266.126H587.617C583.137 266.126 579.506 269.387 579.506 273.409ZM524.462 143.784C526.612 143.784 528.676 143.023 530.2 141.654L587.292 90.3775C588.842 89.0162 589.724 87.1551 589.741 85.2015C589.759 83.2557 588.902 81.3867 587.369 80.0101C585.836 78.6334 583.746 77.8644 581.579 77.872C579.413 77.8874 577.34 78.6796 575.824 80.0717L518.732 131.356H518.724C516.411 133.44 515.718 136.57 516.968 139.293C518.227 142.016 521.182 143.792 524.462 143.792L524.462 143.784ZM743.716 519.038C743.553 509.278 743.391 499.064 743.391 488.489C743.391 448.595 743.699 412.625 743.887 394.343V394.351C743.939 388.552 741.361 382.984 736.753 378.923C732.24 374.924 726.099 372.755 719.761 372.924C689.469 373.762 674.301 394.989 670.573 441.759C668.021 473.899 663.191 507.979 659.148 534.62C656.519 533.159 653.624 532.136 650.592 531.606C630.054 527.96 600.986 541.519 515.168 594.934C471.034 622.382 471.376 653.839 471.986 710.945C472.029 715.714 472.063 720.998 472.097 726.197H467.472C456.835 726.22 448.219 733.972 448.227 743.532L448.287 794.47C448.287 796.462 449.178 798.377 450.745 799.784C452.321 801.192 454.445 801.984 456.672 801.977L662.815 801.807C665.042 801.807 667.174 801.015 668.75 799.6C670.318 798.185 671.2 796.27 671.191 794.27L671.14 743.333H671.131C671.106 733.788 662.489 726.058 651.861 726.043H649.874C658.584 710.623 669.204 696.139 681.545 682.865C703.085 659.392 721.234 633.573 735.554 606.017C744.812 587.004 744.324 557.009 743.716 519.038ZM651.886 741.111C653.273 741.119 654.387 742.126 654.387 743.372L654.43 786.765L465.049 786.919L464.997 743.526C464.989 742.28 466.102 741.265 467.49 741.257L651.886 741.111ZM720.188 599.988C706.382 626.415 688.935 651.187 668.251 673.706C653.186 689.403 640.853 707.061 631.655 726.075L488.866 726.182C488.832 720.937 488.806 715.6 488.763 710.808C488.155 653.81 487.898 630.221 524.725 607.318C590.254 566.524 631.32 543.352 647.284 546.383V546.375C650.419 546.982 653.082 548.828 654.53 551.397C661.536 561.257 638.976 590.122 590.304 619.578H590.295C588.419 620.686 587.118 622.417 586.672 624.385C586.236 626.362 586.689 628.408 587.94 630.084C589.19 631.753 591.134 632.899 593.336 633.276C595.537 633.645 597.815 633.215 599.656 632.076C636.364 609.865 670.999 580.554 672.584 557.366L673.193 553.436C677.552 525.279 684.13 482.709 687.307 442.854C691.606 388.77 710.261 388.262 720.263 387.995L720.272 387.987C722.036 388.01 723.732 388.618 725.025 389.694C726.387 390.879 727.149 392.517 727.132 394.217C726.944 412.529 726.635 448.563 726.635 488.502C726.635 499.138 726.798 509.445 726.952 519.266C727.5 553.984 727.98 583.962 720.186 599.983L720.188 599.988ZM276.527 726.199H271.902C271.936 721.007 271.971 715.708 272.014 710.947C272.622 653.833 272.956 622.378 228.831 594.935C142.971 541.497 113.868 527.908 93.4069 531.608C90.375 532.146 87.4802 533.169 84.8509 534.622C80.8171 507.989 75.9865 473.885 73.4344 441.761C69.7088 394.991 54.5408 373.765 24.2381 372.926C17.8403 372.795 11.6652 375.002 7.11744 379.048C2.56967 383.086 0.0515245 388.608 0.120151 394.353C0.300007 412.635 0.608368 448.606 0.608368 488.498C0.608368 499.074 0.445647 509.288 0.282912 519.048C-0.325167 557.018 -0.804815 587.015 8.44506 606.026C22.765 633.583 40.9057 659.401 62.4452 682.867C74.7782 696.149 85.4077 710.638 94.1164 726.067H92.1123C81.4921 726.082 72.8848 733.812 72.8504 743.348L72.799 794.286H72.7904C72.7904 796.286 73.664 798.201 75.24 799.616C76.8073 801.031 78.9399 801.831 81.1666 801.831L287.309 802H287.318C289.545 802 291.669 801.208 293.245 799.8C294.82 798.393 295.703 796.478 295.703 794.486L295.763 743.548C295.78 738.957 293.758 734.55 290.153 731.296C286.539 728.043 281.64 726.213 276.527 726.213L276.527 726.199ZM75.7561 673.7C55.0725 651.18 37.6168 626.415 23.8192 599.982C16.0339 583.954 16.4965 553.982 17.0618 519.257C17.2245 509.435 17.3872 499.137 17.3872 488.493C17.3872 448.538 17.0789 412.512 16.899 394.208C16.8733 392.5 17.6356 390.862 19.0059 389.677C20.2649 388.562 21.9779 387.947 23.7508 387.97C33.7628 388.239 52.4161 388.755 56.7157 442.83C59.876 482.554 66.4365 525.024 70.7789 553.134L71.4469 557.418C73.0999 580.606 107.692 609.871 144.358 632.059V632.067C146.199 633.197 148.469 633.613 150.661 633.236C152.854 632.859 154.781 631.713 156.031 630.044C157.282 628.383 157.736 626.345 157.299 624.376C156.862 622.414 155.577 620.684 153.719 619.577C105.055 590.128 82.4962 561.255 89.5014 551.379C90.9488 548.818 93.6039 546.972 96.73 546.373C112.609 543.288 153.736 566.514 219.289 607.308C256.117 630.213 255.869 653.808 255.251 710.798C255.208 715.589 255.174 720.935 255.148 726.172L112.35 726.072C103.152 707.06 90.8185 689.401 75.7542 673.695L75.7561 673.7ZM278.952 786.928L89.5713 786.774L89.6141 743.381V743.373C89.6227 742.135 90.7361 741.128 92.1149 741.112L276.519 741.259C277.178 741.251 277.803 741.489 278.266 741.912C278.737 742.335 279.002 742.912 279.011 743.512L278.952 786.928Z" fill="#3A414E"/>
</svg>
