<svg width="335" height="420" viewBox="0 0 335 420" fill="none" xmlns="http://www.w3.org/2000/svg">
<path d="M48.25 75.5674L89.9167 117.234" stroke="white" stroke-width="32.0413" stroke-linecap="round"/>
<path d="M318.599 345.042L276.89 303.334" stroke="white" stroke-width="32.0055" stroke-linecap="round"/>
<path d="M314.828 76.708L273.781 117.755" stroke="white" stroke-width="31.9778" stroke-linecap="round"/>
<path d="M84.3285 303.354L42.6201 345.067" stroke="white" stroke-width="32.0055" stroke-linecap="round"/>
<path d="M177.244 16.5205L177.75 75.5622" stroke="white" stroke-width="31.9808" stroke-linecap="round"/>
<path d="M181.125 345.75V403.661" stroke="white" stroke-width="32.0501" stroke-linecap="round"/>
<path d="M253.984 239.287H266.052C266.865 239.287 267.521 238.625 267.521 237.818V225.761C267.521 224.948 266.865 224.292 266.052 224.292H253.984C253.172 224.292 252.516 224.948 252.516 225.761V237.818C252.516 238.625 253.172 239.287 253.984 239.287Z" fill="#787878"/>
<path d="M234.578 239.287H246.646C247.458 239.287 248.115 238.625 248.115 237.818V225.761C248.115 224.948 247.458 224.292 246.646 224.292H234.578C233.766 224.292 233.109 224.948 233.109 225.761V237.818C233.109 238.625 233.766 239.287 234.578 239.287Z" fill="#787878"/>
<path d="M253.984 257.896H266.052C266.865 257.896 267.521 257.24 267.521 256.427V244.375C267.521 243.563 266.865 242.906 266.052 242.906H253.984C253.172 242.906 252.516 243.563 252.516 244.375V256.427C252.516 257.24 253.172 257.896 253.984 257.896Z" fill="#787878"/>
<path d="M234.578 257.896H246.646C247.458 257.896 248.115 257.24 248.115 256.427V244.375C248.115 243.563 247.458 242.906 246.646 242.906H234.578C233.766 242.906 233.109 243.563 233.109 244.375V256.427C233.109 257.24 233.766 257.896 234.578 257.896Z" fill="#787878"/>
<path d="M121.891 237.761H129.235C129.729 237.761 130.131 237.365 130.131 236.87V229.532C130.131 229.037 129.729 228.636 129.235 228.636H121.891C121.396 228.636 120.995 229.037 120.995 229.532V236.87C120.995 237.365 121.396 237.761 121.891 237.761Z" fill="#787878"/>
<path d="M110.073 237.761H117.422C117.916 237.761 118.312 237.365 118.312 236.87V229.532C118.312 229.037 117.916 228.636 117.422 228.636H110.073C109.578 228.636 109.177 229.037 109.177 229.532V236.87C109.177 237.365 109.578 237.761 110.073 237.761Z" fill="#787878"/>
<path d="M121.891 249.099H129.235C129.729 249.099 130.131 248.698 130.131 248.203V240.865C130.131 240.37 129.729 239.969 129.235 239.969H121.891C121.396 239.969 120.995 240.37 120.995 240.865V248.203C120.995 248.698 121.396 249.099 121.891 249.099Z" fill="#787878"/>
<path d="M110.073 249.099H117.422C117.916 249.099 118.312 248.698 118.312 248.203V240.865C118.312 240.37 117.916 239.969 117.422 239.969H110.073C109.578 239.969 109.177 240.37 109.177 240.865V248.203C109.177 248.698 109.578 249.099 110.073 249.099Z" fill="#787878"/>
<path d="M19.5675 257.172L62.0727 195.479H107.302L64.7966 257.172H19.5675ZM173.995 255.084L128.203 188.625L145.661 163.292H237.245L173.995 255.084ZM120.25 200.563L158.573 256.177H81.9268L120.25 200.563ZM0.994554 266.922C2.14559 269.11 4.41643 269.985 6.89039 269.985L176.745 269.495C178.937 269.495 180.989 268.417 182.234 266.61L249.922 168.375L317.609 266.61C318.906 268.485 320.984 269.495 323.104 269.495C324.406 269.495 325.724 269.115 326.88 268.318C329.906 266.235 330.677 262.089 328.588 259.063L255.463 152.938C255.297 152.688 255.109 152.448 254.911 152.224C254.719 152.006 254.51 151.802 254.297 151.61C253.13 150.599 251.609 149.985 249.948 149.979H142.156C139.963 149.979 137.911 151.058 136.666 152.86L116.474 182.167H58.5727C56.38 182.167 54.3279 183.24 53.0831 185.047L1.40601 260.052C-0.000238823 262.089 -0.156489 264.735 0.994554 266.922Z" fill="white"/>
<path d="M237.245 163.292H145.661L128.203 188.625L173.995 255.084L237.245 163.292Z" fill="#787878"/>
<path d="M64.7966 257.172L107.302 195.479H62.0726L19.5674 257.172H64.7966Z" fill="#787878"/>
</svg>
