<svg width="418" height="420" viewBox="0 0 418 420" fill="none" xmlns="http://www.w3.org/2000/svg">
<path d="M74.5264 209.796L16.6201 210.02" stroke="white" stroke-width="32.0501" stroke-linecap="round"/>
<path d="M78.25 75.5674L119.917 117.234" stroke="white" stroke-width="32.0413" stroke-linecap="round"/>
<path d="M348.599 345.042L306.89 303.334" stroke="white" stroke-width="32.0055" stroke-linecap="round"/>
<path d="M344.828 76.708L303.781 117.755" stroke="white" stroke-width="31.9778" stroke-linecap="round"/>
<path d="M114.328 303.354L72.6201 345.067" stroke="white" stroke-width="32.0055" stroke-linecap="round"/>
<path d="M207.5 110.323C152.391 110.323 107.5 155.214 107.5 210.323C107.5 265.433 152.391 310.323 207.5 310.323C262.609 310.323 307.5 265.433 307.5 210.323C307.5 155.214 262.609 110.323 207.5 110.323ZM207.5 130.323C251.802 130.323 287.5 166.021 287.5 210.323C287.5 254.625 251.802 290.323 207.5 290.323C163.198 290.323 127.5 254.625 127.5 210.323C127.5 166.021 163.198 130.323 207.5 130.323Z" fill="#F3F3F3"/>
<path d="M401.484 209.891L343.578 210.109" stroke="white" stroke-width="32.0501" stroke-linecap="round"/>
<path d="M207.244 16.5205L207.75 75.5622" stroke="white" stroke-width="31.9808" stroke-linecap="round"/>
<path d="M211.125 345.75V403.661" stroke="white" stroke-width="32.0501" stroke-linecap="round"/>
</svg>
