<?xml version="1.0" encoding="UTF-8"?>
<svg width="752pt" height="752pt" version="1.1" viewBox="0 0 752 752" xmlns="http://www.w3.org/2000/svg">
 <path d="m170.04 162.89c-3.8359 0-7.1484 3.3125-7.1484 7.1484v411.92c0 3.8398 3.3125 7.1523 7.1484 7.1523h411.92c3.8398 0 7.1523-3.3125 7.1523-7.1523v-411.92c0-3.8359-3.3125-7.1484-7.1523-7.1484zm7.0586 14.207h397.81v397.81h-397.81zm15.824 9.4727c-3.4102 0-6.3516 2.9414-6.3516 6.3516v105.1c0.019532-0.007812 0.13672-0.039062 0.13672-0.039062 0.003907 0 1.6992 0.35938 1.7031 0.35938 0.003906 0.003906 1.3008 0.88672 1.3047 0.89062l13.613 13.625h97.113l12.414-12.414v-97.102l-13.625-13.637c-0.003907 0-0.88672-1.2891-0.89062-1.293 0-0.003906-0.35156-1.6992-0.35156-1.7031 0 0 0.035157-0.11719 0.039063-0.13672zm143.2 0c0.007812 0.019532 0.027344 0.13672 0.027344 0.13672 0 0.003907-0.36719 1.6992-0.36719 1.7031-0.003906 0.003906-0.875 1.293-0.87891 1.293l-13.625 13.625v97.094l12.422 12.434h93.023l12.422-12.434v-97.082l-13.625-13.637c-0.003907 0-0.88672-1.2891-0.88672-1.293-0.003907-0.003906-0.35156-1.6992-0.35156-1.7031 0 0 0.023438-0.11719 0.027344-0.13672zm126.28 0c0.003906 0.019532 0.035156 0.13672 0.035156 0.13672 0 0.003907-0.34766 1.6914-0.35156 1.6953 0 0-0.88281 1.3086-0.88672 1.3125l-13.633 13.625v97.082l12.422 12.434h88.961l13.625-13.625c0.015625-0.019531 0.03125-0.039063 0.046875-0.054688 0.003906-0.003906 1.3008-0.85156 1.3047-0.85156 0.003907-0.003907 1.2734-0.26953 1.5078-0.31641v-105.09c0-3.3984-2.9492-6.3516-6.3555-6.3516zm-259.07 134.71-13.625 13.625c0 0.003906-1.2891 0.875-1.293 0.87891-0.003906 0-1.6992 0.35938-1.7031 0.35938 0 0-0.11719-0.03125-0.13672-0.035156v88.203c0.019532-0.003906 0.13672-0.027344 0.13672-0.027344 0.003907 0 1.6992 0.34766 1.7031 0.35156 0.003906 0 1.2773 0.875 1.293 0.88672h0.011719l13.613 13.625h97.113l12.414-12.422v-93.023l-12.434-12.422zm130.38 0-12.422 12.422v93.023l12.422 12.422h93.023l12.422-12.422v-93.023l-12.422-12.422zm126.29 0-12.43 12.422v93.016l12.43 12.43h88.945l13.633-13.625c0.19141-0.19141 0.40625-0.38672 0.69531-0.57422 0.28906-0.1875 1.1719-0.51562 1.1758-0.51562 0 0 0.49609-0.015625 0.98828-0.027344v-88.289c-0.23828-0.050782-1.6055-0.33984-1.6094-0.34375-0.003907 0-1.457-1.0859-1.4609-1.0898l-13.422-13.402zm-256.66 126.29-13.625 13.633c-0.003906 0.003906-1.3125 0.88672-1.3125 0.88672-0.003906 0.003906-1.6914 0.35156-1.6953 0.35156 0 0-0.11719-0.03125-0.13672-0.035156v96.676c0 3.4141 2.9375 6.3555 6.3516 6.3555h105.1c0.046875-0.23828 0.32031-1.5703 0.32031-1.5703 0.003906-0.003906 0.91406-1.3125 0.91797-1.3164l13.598-13.605v-88.961l-12.414-12.414zm130.37 0-12.43 12.414v88.969l13.625 13.625c0.003906 0.003906 0.88672 1.293 0.88672 1.2969s0.27344 1.3242 0.32422 1.5625h88.195c0.050781-0.25781 0.3125-1.5234 0.3125-1.5273 0.003906-0.003906 0.88672-1.3164 0.89844-1.332l13.625-13.633v-88.945l-12.422-12.43zm126.27 0-12.414 12.414v88.961l13.633 13.645c0.003906 0 1.1484 2.1055 1.1484 2.1094 0 0-0.015625 0.39453-0.027344 0.73828h96.758c3.4062 0 6.3555-2.9492 6.3555-6.3555v-96.676c-0.19141-0.039063-1.5586-0.32422-1.5625-0.32422s-1.3203-0.90234-1.3242-0.90625l-13.605-13.605z"/>
</svg>
