<svg xmlns="http://www.w3.org/2000/svg" xmlns:xlink="http://www.w3.org/1999/xlink" width="500" zoomAndPan="magnify" viewBox="0 0 375 374.999991" height="500" preserveAspectRatio="xMidYMid meet" version="1.0"><defs><clipPath id="id1"><path d="M 71.644531 88.433594 L 320.644531 88.433594 L 320.644531 337.433594 L 71.644531 337.433594 Z M 71.644531 88.433594 " clip-rule="nonzero"/></clipPath></defs><rect x="-37.5" width="450" fill="none" y="-37.499999" height="449.999989" fill-opacity="1"/><rect x="-37.5" width="450" fill="none" y="-37.499999" height="449.999989" fill-opacity="1"/><g clip-path="url(#id1)"><path fill="#545454" d="M 196.144531 88.433594 C 127.355469 88.433594 71.644531 144.148438 71.644531 212.933594 C 71.644531 281.71875 127.355469 337.433594 196.144531 337.433594 C 264.929688 337.433594 320.644531 281.71875 320.644531 212.933594 C 320.644531 144.148438 264.929688 88.433594 196.144531 88.433594 Z M 196.144531 312.535156 C 141.113281 312.535156 96.542969 267.960938 96.542969 212.933594 C 96.542969 157.90625 141.113281 113.332031 196.144531 113.332031 C 251.171875 113.332031 295.742188 157.90625 295.742188 212.933594 C 295.742188 267.960938 251.171875 312.535156 196.144531 312.535156 Z M 196.144531 312.535156 " fill-opacity="1" fill-rule="nonzero"/></g><path stroke-linecap="round" transform="matrix(21.206715, -31.862752, 31.842112, 21.192975, 184.813104, 293.323106)" fill="none" stroke-linejoin="miter" d="M 0.500046 0.000016797 L 7.534239 0.0000089523 " stroke="#d9d9d9" stroke-width="1" stroke-opacity="1" stroke-miterlimit="4"/><path stroke-linecap="round" transform="matrix(23.71023, 32.772017, -32.812747, 23.739701, 130.157398, 184.973777)" fill="none" stroke-linejoin="miter" d="M 0.49998 0.0000099646 L 2.763405 -0.0000405252 " stroke="#d9d9d9" stroke-width="1" stroke-opacity="1" stroke-miterlimit="4"/></svg>
